<?xml version="1.0" standalone="no"?>
<!DOCTYPE svg PUBLIC "-//W3C//DTD SVG 20010904//EN"
 "http://www.w3.org/TR/2001/REC-SVG-20010904/DTD/svg10.dtd">
<svg version="1.0" xmlns="http://www.w3.org/2000/svg"
 width="512.000000pt" height="512.000000pt" viewBox="0 0 512.000000 512.000000"
 preserveAspectRatio="xMidYMid meet">
<metadata>
Created by potrace 1.14, written by Peter Selinger 2001-2017
</metadata>
<g transform="translate(0.000000,512.000000) scale(0.100000,-0.100000)"
fill="#000000" stroke="none">
<path d="M824 4533 c-301 -33 -473 -155 -517 -365 -21 -97 -21 -1515 0 -1602
40 -173 195 -308 393 -341 19 -3 42 -8 50 -10 52 -15 195 -19 667 -19 293 -1
534 -3 534 -6 4 -15 5 -357 1 -367 -3 -10 -38 -13 -128 -13 l-124 0 -1 28 c0
15 -2 65 -2 112 l-2 85 -700 0 -700 0 -1 -389 c-1 -273 2 -404 10 -441 27
-113 93 -206 187 -262 60 -36 181 -78 249 -88 25 -3 59 -9 75 -12 17 -3 365
-7 775 -8 410 -2 746 -3 747 -4 2 0 -18 -39 -43 -86 -51 -95 -50 -96 41 -75
22 5 63 12 90 15 28 4 68 11 90 15 22 5 63 12 90 16 28 3 52 8 55 9 3 2 24 6
46 9 22 4 49 8 59 10 11 2 40 7 65 11 25 4 54 9 65 11 11 2 61 11 110 19 107
18 141 24 177 31 90 18 84 21 187 -85 419 -431 625 -641 627 -639 1 2 5 23 9
48 9 63 15 101 20 130 2 14 7 45 10 70 9 74 23 171 30 210 2 14 7 45 10 70 3
25 10 70 15 100 9 51 11 72 25 175 3 22 7 49 9 60 2 11 7 47 11 81 4 34 10 66
14 72 7 11 873 442 889 442 5 0 15 7 22 15 10 12 -37 38 -307 172 -175 86
-320 158 -323 158 -3 1 -67 32 -143 71 -97 49 -139 75 -142 89 -5 22 -14 82
-20 130 -6 49 -16 115 -20 134 -2 10 -6 42 -10 72 -3 30 -8 65 -10 79 -8 42
-14 83 -19 125 -3 22 -8 50 -10 62 -3 12 -7 50 -11 84 -4 35 -8 66 -10 69 -2
3 -6 24 -9 46 -3 21 -8 62 -11 89 -4 28 -10 65 -13 83 l-7 33 -265 -271 c-146
-150 -284 -292 -308 -316 -23 -24 -47 -45 -53 -47 -8 -1 -12 55 -14 178 -3
203 -5 216 -44 300 -63 134 -213 223 -441 260 -25 4 -296 9 -603 10 -307 2
-561 5 -564 8 -3 3 -6 89 -7 191 -1 159 1 186 14 187 20 1 211 1 230 0 13 -1
16 -19 15 -111 l-1 -110 702 0 701 0 -1 403 c-2 296 -5 414 -15 447 -43 148
-141 243 -310 301 -31 11 -72 22 -91 25 -19 3 -41 7 -48 9 -63 22 -1883 29
-2068 8z"/>
</g>
</svg>
