<?xml version="1.0" encoding="utf-8"?>
<!-- Generator: Adobe Illustrator 25.3.0, SVG Export Plug-In . SVG Version: 6.00 Build 0)  -->
<svg version="1.1" id="Layer_1" xmlns="http://www.w3.org/2000/svg" xmlns:xlink="http://www.w3.org/1999/xlink" x="0px" y="0px"
	 viewBox="0 0 512 512" style="enable-background:new 0 0 512 512;" xml:space="preserve">
<style type="text/css">
	.st0{stroke:#ED2525;stroke-width:7;stroke-miterlimit:10;}
	.st1{fill:#ECD81D;stroke:#ED2525;stroke-width:5;stroke-miterlimit:10;}
</style>
<g>
	<path class="st0" d="M99.5,424.98c-44.49,0-66.73-14.99-66.73-44.97V311.7h133.46v21.63c0,0.76,0.42,1.14,1.28,1.14h30.16
		c0.85,0,1.28-0.37,1.28-1.14v-43.26c0-0.76-0.43-1.14-1.28-1.14H99.5c-44.49,0-66.73-15.37-66.73-46.11V107.35
		c0-30.74,22.24-46.11,66.73-46.11h166.18c44.48,0,66.73,15.37,66.73,46.11v67.17H198.95v-21.06c0-0.76-0.43-1.14-1.28-1.14h-30.16
		c-0.86,0-1.28,0.38-1.28,1.14v43.26c0,0.76,0.42,1.14,1.28,1.14h98.17c44.48,0,66.73,15,66.73,44.97v137.19
		c0,29.98-22.25,44.97-66.73,44.97H99.5z"/>
</g>
<polygon class="st1" points="502.21,354.5 412.4,398.82 398,497.94 328.09,426.22 229.37,443.15 275.98,354.5 229.37,265.85 
	328.09,282.78 398,211.06 412.4,310.17 "/>
</svg>
